# xmcd CD database file
#
# Track frame offsets:
#	150
#	17257
#	34650
#	47565
#	61340
#	85365
#	109705
#	131045
#	147860
#	167632
#	185547
#
# Disc length: 2742 seconds
#
# Revision: 0
# Processed by: cddbd v1.5.2PL0 Copyright (c) Steve Scherf et al.
# Submitted via: CDex 1.51
#
DISCID=8b0ab40b
DTITLE=Jonas - Wings of Freedom
DYEAR=1994
DGENRE=New Age
TTITLE0=Wings of Freedom
TTITLE1=Autumn Fields
TTITLE2=Dawn
TTITLE3=Northwards
TTITLE4=Rhythm of Life
TTITLE5=The Highlands
TTITLE6=Marie
TTITLE7=Romantic Interlude
TTITLE8=Pastorale
TTITLE9=Memories of a Day Gone By
TTITLE10=Distant Gaze
EXTD=YEAR: 1994
EXTT0=
EXTT1=
EXTT2=
EXTT3=
EXTT4=
EXTT5=
EXTT6=
EXTT7=
EXTT8=
EXTT9=
EXTT10=
PLAYORDER=
